<svg data-v-423bf9ae="" xmlns="http://www.w3.org/2000/svg" viewBox="0 0 213.40541621696485 60" class="font"><!----><!----><!----><g data-v-423bf9ae="" id="ad8f915d-c5af-42fe-98a9-fb2d7afb7d5a" fill="black" transform="matrix(5.405405219639779,0,0,5.405405219639779,-6.8108115814477515,-24.810809829271655)"><path d="M5.11 4.62L5.11 4.62Q6.19 4.62 7.08 5.13L7.08 5.13L7.08 5.13Q7.97 5.64 8.47 6.53L8.47 6.53L8.47 6.53Q8.97 7.42 8.97 8.51L8.97 8.51L8.97 8.51Q8.97 9.60 8.51 10.49L8.51 10.49L8.51 10.49Q8.04 11.38 7.22 11.89L7.22 11.89L7.22 11.89Q6.40 12.39 5.39 12.39L5.39 12.39L5.39 12.39Q4.58 12.39 3.88 12.05L3.88 12.05L3.88 12.05Q3.18 11.72 2.69 11.12L2.69 11.12L2.69 14.90L2.69 14.90Q2.69 15.22 2.49 15.41L2.49 15.41L2.49 15.41Q2.30 15.61 1.97 15.61L1.97 15.61L1.97 15.61Q1.67 15.61 1.46 15.41L1.46 15.41L1.46 15.41Q1.26 15.22 1.26 14.90L1.26 14.90L1.26 8.51L1.26 8.51Q1.26 7.42 1.77 6.53L1.77 6.53L1.77 6.53Q2.28 5.64 3.16 5.13L3.16 5.13L3.16 5.13Q4.03 4.62 5.11 4.62L5.11 4.62ZM5.11 11.13L5.11 11.13Q5.81 11.13 6.38 10.79L6.38 10.79L6.38 10.79Q6.94 10.44 7.27 9.85L7.27 9.85L7.27 9.85Q7.60 9.25 7.60 8.51L7.60 8.51L7.60 8.51Q7.60 7.77 7.27 7.17L7.27 7.17L7.27 7.17Q6.94 6.57 6.38 6.22L6.38 6.22L6.38 6.22Q5.81 5.88 5.11 5.88L5.11 5.88L5.11 5.88Q4.41 5.88 3.84 6.22L3.84 6.22L3.84 6.22Q3.28 6.57 2.95 7.17L2.95 7.17L2.95 7.17Q2.63 7.77 2.63 8.51L2.63 8.51L2.63 8.51Q2.63 9.25 2.95 9.85L2.95 9.85L2.95 9.85Q3.28 10.44 3.84 10.79L3.84 10.79L3.84 10.79Q4.41 11.13 5.11 11.13L5.11 11.13ZM14.85 4.59L14.85 4.59Q15.60 4.59 16.02 4.82L16.02 4.82L16.02 4.82Q16.44 5.04 16.44 5.38L16.44 5.38L16.44 5.38Q16.44 5.47 16.42 5.52L16.42 5.52L16.42 5.52Q16.30 5.96 15.86 5.96L15.86 5.96L15.86 5.96Q15.79 5.96 15.65 5.94L15.65 5.94L15.65 5.94Q15.09 5.84 14.74 5.84L14.74 5.84L14.74 5.84Q13.73 5.84 13.12 6.30L13.12 6.30L13.12 6.30Q12.50 6.76 12.50 7.55L12.50 7.55L12.50 11.63L12.50 11.63Q12.50 11.97 12.33 12.15L12.33 12.15L12.33 12.15Q12.15 12.33 11.80 12.33L11.80 12.33L11.80 12.33Q11.47 12.33 11.28 12.16L11.28 12.16L11.28 12.16Q11.10 11.98 11.10 11.63L11.10 11.63L11.10 5.38L11.10 5.38Q11.10 5.04 11.28 4.86L11.28 4.86L11.28 4.86Q11.47 4.68 11.80 4.68L11.80 4.68L11.80 4.68Q12.50 4.68 12.50 5.38L12.50 5.38L12.50 5.64L12.50 5.64Q12.92 5.15 13.54 4.87L13.54 4.87L13.54 4.87Q14.15 4.59 14.85 4.59L14.85 4.59ZM23.76 4.75L23.76 4.75Q24.19 4.91 24.19 5.29L24.19 5.29L24.19 5.29Q24.19 5.43 24.11 5.63L24.11 5.63L19.82 15.26L19.82 15.26Q19.66 15.69 19.28 15.69L19.28 15.69L19.28 15.69Q19.14 15.69 18.94 15.61L18.94 15.61L18.94 15.61Q18.52 15.43 18.52 15.06L18.52 15.06L18.52 15.06Q18.52 14.90 18.61 14.73L18.61 14.73L20.01 11.58L16.86 5.60L16.86 5.60Q16.79 5.47 16.79 5.31L16.79 5.31L16.79 5.31Q16.79 5.12 16.90 4.97L16.90 4.97L16.90 4.97Q17.01 4.82 17.19 4.73L17.19 4.73L17.19 4.73Q17.32 4.68 17.47 4.68L17.47 4.68L17.47 4.68Q17.86 4.68 18.06 5.07L18.06 5.07L20.62 10.16L22.88 5.08L22.88 5.08Q23.06 4.68 23.42 4.68L23.42 4.68L23.42 4.68Q23.60 4.68 23.76 4.75L23.76 4.75ZM28.85 4.62L28.85 4.62Q30.51 4.62 31.60 5.88L31.60 5.88L31.60 5.88Q31.74 6.03 31.74 6.24L31.74 6.24L31.74 6.24Q31.74 6.55 31.43 6.76L31.43 6.76L31.43 6.76Q31.29 6.86 31.11 6.86L31.11 6.86L31.11 6.86Q30.79 6.86 30.56 6.61L30.56 6.61L30.56 6.61Q30.21 6.23 29.80 6.05L29.80 6.05L29.80 6.05Q29.39 5.88 28.85 5.88L28.85 5.88L28.85 5.88Q27.78 5.88 27.10 6.60L27.10 6.60L27.10 6.60Q26.43 7.32 26.43 8.51L26.43 8.51L26.43 8.51Q26.43 9.27 26.75 9.86L26.75 9.86L26.75 9.86Q27.06 10.46 27.63 10.79L27.63 10.79L27.63 10.79Q28.20 11.13 28.92 11.13L28.92 11.13L28.92 11.13Q29.88 11.13 30.46 10.64L30.46 10.64L30.46 10.64Q30.73 10.44 30.98 10.44L30.98 10.44L30.98 10.44Q31.18 10.44 31.35 10.57L31.35 10.57L31.35 10.57Q31.61 10.79 31.61 11.07L31.61 11.07L31.61 11.07Q31.61 11.28 31.44 11.45L31.44 11.45L31.44 11.45Q30.44 12.39 28.92 12.39L28.92 12.39L28.92 12.39Q27.82 12.39 26.94 11.89L26.94 11.89L26.94 11.89Q26.05 11.38 25.56 10.49L25.56 10.49L25.56 10.49Q25.06 9.60 25.06 8.51L25.06 8.51L25.06 8.51Q25.06 7.39 25.54 6.50L25.54 6.50L25.54 6.50Q26.03 5.61 26.89 5.12L26.89 5.12L26.89 5.12Q27.76 4.62 28.85 4.62L28.85 4.62ZM40.74 8.39L40.74 8.39Q40.74 8.65 40.56 8.83L40.56 8.83L40.56 8.83Q40.38 9.00 40.10 9.00L40.10 9.00L34.78 9.00L34.78 9.00Q34.93 9.98 35.66 10.58L35.66 10.58L35.66 10.58Q36.40 11.19 37.46 11.19L37.46 11.19L37.46 11.19Q37.88 11.19 38.34 11.03L38.34 11.03L38.34 11.03Q38.79 10.88 39.09 10.65L39.09 10.65L39.09 10.65Q39.28 10.50 39.55 10.50L39.55 10.50L39.55 10.50Q39.82 10.50 39.97 10.64L39.97 10.64L39.97 10.64Q40.22 10.85 40.22 11.12L40.22 11.12L40.22 11.12Q40.22 11.37 40.00 11.54L40.00 11.54L40.00 11.54Q39.52 11.91 38.82 12.15L38.82 12.15L38.82 12.15Q38.11 12.39 37.46 12.39L37.46 12.39L37.46 12.39Q36.32 12.39 35.41 11.89L35.41 11.89L35.41 11.89Q34.50 11.40 33.98 10.51L33.98 10.51L33.98 10.51Q33.47 9.63 33.47 8.51L33.47 8.51L33.47 8.51Q33.47 7.39 33.96 6.50L33.96 6.50L33.96 6.50Q34.44 5.61 35.30 5.12L35.30 5.12L35.30 5.12Q36.16 4.62 37.25 4.62L37.25 4.62L37.25 4.62Q38.33 4.62 39.12 5.10L39.12 5.10L39.12 5.10Q39.90 5.57 40.32 6.43L40.32 6.43L40.32 6.43Q40.74 7.28 40.74 8.39L40.74 8.39ZM37.25 5.82L37.25 5.82Q36.23 5.82 35.59 6.38L35.59 6.38L35.59 6.38Q34.96 6.94 34.79 7.88L34.79 7.88L39.45 7.88L39.45 7.88Q39.33 6.94 38.75 6.38L38.75 6.38L38.75 6.38Q38.18 5.82 37.25 5.82L37.25 5.82Z"></path></g><!----><!----></svg>